<svg width="92" height="64" viewBox="0 0 92 64" xmlns="http://www.w3.org/2000/svg"><path d="M67.075 0a4 4 0 0 1 3.465 5.999l-32.303 56A4 4 0 0 1 34.772 64h-8.847a4 4 0 0 1-3.465-5.999l32.303-56A4 4 0 0 1 58.228 0h8.847zM79.79 12.3a4 4 0 0 1 1.335 1.352l9.657 16.12a4 4 0 0 1 .02 4.077l-16.5 28.172A4 4 0 0 1 70.853 64h-8.94a4 4 0 0 1-3.468-5.993l13.842-24.09a4 4 0 0 0-.107-4.161l-2.638-4.089a4 4 0 0 1-.046-4.264l4.792-7.79A4 4 0 0 1 79.79 12.3zM30.088 0a4 4 0 0 1 3.468 5.993l-13.842 24.09a4 4 0 0 0 .107 4.161l2.638 4.089a4 4 0 0 1 .046 4.264l-4.792 7.79a4 4 0 0 1-6.838-.04L1.218 34.23a4 4 0 0 1-.02-4.078l16.5-28.172A4 4 0 0 1 21.147 0h8.94z" fill="#1968FA" fill-rule="evenodd"/></svg>
