<svg t="1620877101897" class="icon" viewBox="0 0 1024 1024" version="1.1" xmlns="http://www.w3.org/2000/svg" p-id="2709" width="200" height="200"><path d="M0 0m42.666667 0l938.666666 0q42.666667 0 42.666667 42.666667l0 938.666666q0 42.666667-42.666667 42.666667l-938.666666 0q-42.666667 0-42.666667-42.666667l0-938.666666q0-42.666667 42.666667-42.666667Z" fill="#F7F7F7" p-id="2710"></path><path d="M746.666667 277.333333a42.666667 42.666667 0 0 1 42.666666 42.666667v384a42.666667 42.666667 0 0 1-42.666666 42.666667h-469.333334a42.666667 42.666667 0 0 1-42.666666-42.666667v-384a42.666667 42.666667 0 0 1 42.666666-42.666667h469.333334z m0 42.666667h-469.333334v304.085333l68.437334-96.853333a35.2 35.2 0 0 1 57.472 0l58.752 83.2L389.12 704h21.333333l220.245334-282.709333a35.2 35.2 0 0 1 55.509333 0l60.458667 77.568V320zM394.666667 369.066667a46.933333 46.933333 0 1 1 0 93.866666 46.933333 46.933333 0 0 1 0-93.866666z" fill="#919191" p-id="2711"></path></svg>
